<svg xmlns="http://www.w3.org/2000/svg" viewBox="0 0 364 275">
<rect fill="#FF2346" width="364" height="275"/>
<path fill="#FFFFFF" d="M265,158.4v18l-9.2-18h-11v28.7h8.6v-18.8l8.5,13.9l-3,4.9h14.7v-28.7H265z M147.3,136.4
l5.6,1.2c6.4,1.4,8.6,4.2,8.6,8.5c0,6.2-5.4,10.1-12.9,10.1c-4.8,0-12.4-1.5-12.9-11l7.6,1.2l3.2,2c2.3,0.5,6.2,0.1,6.2-2
c0-0.6-0.5-1-1.5-1.2l-5.6-1.2c-6-1.3-8.6-4-8.6-8.5c0-5.8,4.4-9.7,11.9-9.7c4.9,0,8.8,1.4,12.1,3.4l-4.1,7.2
c-2.2-1.5-5.1-2.6-8-2.6c-2,0-3.1,0.5-3.1,1.4C145.8,135.8,146.4,136.2,147.3,136.4L147.3,136.4z M284.6,104.6l5.6,1.2
c6.4,1.4,8.6,4.2,8.6,8.5c0,6.2-5.4,10.1-12.9,10.1c-4.9,0-12.4-1.5-12.9-11l7.6,1.2l3.2,2c2.3,0.5,6.2,0.1,6.2-2
c0-0.6-0.5-1-1.5-1.2l-5.6-1.2c-6-1.3-8.6-4-8.6-8.5c0-5.8,4.4-9.7,11.9-9.7c4.9,0,8.8,1.4,12.1,3.4l-4.1,7.2
c-2.2-1.5-5.1-2.6-8-2.6c-2,0-3.1,0.5-3.1,1.4C283.2,104,283.7,104.4,284.6,104.6L284.6,104.6z M209.5,104.9
c-0.6-2.2-2.2-3.9-4.8-4c-3.2-0.1-5.9,2.5-6.1,7.5c-0.2,5.1,2.1,8.3,5.5,8.4c2.9,0.1,4.8-1.5,5.4-3.7l8.8,1.7
c-1.5,6.1-7,9.6-14.1,9.4l-14.6-13.6c-0.6-13,7.2-17.2,15.2-16.8c7.1,0.3,12.1,3.9,13.4,9.9L209.5,104.9z M64.6,113.5
l11.1,1.7l2.4,2.4c2.4,0.7,4.6-0.2,4.5-2.4l0-23.2l10.3,2.6v20l-11.6,10.2C72.5,125.3,64.9,122.4,64.6,113.5L64.6,113.5z
 M173.6,103.2c0-0.8,1-1.3,3-1.3c2.9,0,5.8,1,8,2.6l4.1-7.2c-3.2-2-7.1-3.4-12-3.4c-7.5,0-11.9,3.9-11.9,9.7
c0,4.4,2.6,7.2,8.6,8.4l5.6,1.2c1,0.2,1.5,0.6,1.5,1.2c0,0.9-1.2,1.7-4.1,1.7c-3.2,0-6.3-1-8.5-2.9l-4.1,7.2
c3.1,2.4,7.5,3.7,12.4,3.7c7.5,0,13.1-3.9,13.1-10.1c0-4.3-2.2-7.1-8.6-8.4l-5.6-1.2C174.1,104.3,173.6,103.9,173.6,103.2
L173.6,103.2z M250.6,123.5h22.1v-6.5h-15.3l2.7-4.9l11.7,0v-6.5h-14.4l2.4-4.3l12.6,0v-6.5h-21.8V123.5z M157.3,187.1h22.3
v-6.5h-13.2l-2.8-5h14.9v-6.5h-12.5l-2.4-4.3h15.4v-6.5h-21.8V187.1z M128.4,116.6h7.4c4.8,0,7-2.7,7-7.9c0-4.8-2.2-7.2-7-7.2
h-3.3L128.4,116.6z M137.9,94.7c8.7,0,14,5,14,14c0,9.7-5.3,14.7-14,14.7h-14.1V94.7H137.9z M230.7,148.3l13.6-12.7
l-10.9,19.7h15.8v-29.4l-18.5,9.8l-14.2-9.8v29.4h9v-16.4l5.3,3.7V148.3z M86.6,148.3l13.6-12.7l-10.9,19.7H105v-29.4
l-18.5,9.8l-14.2-9.8v29.4h9v-16.4l5.3,3.7V148.3z M125.1,144.3c0,3.2-1.6,4.7-4.2,4.7c-2.7,0-4.1-1.5-4.1-4.4v-18h-9.4v17.6
c0,7.5,5.3,12,13.4,12c8.1,0,13.6-4.4,13.6-12.1v-17.4h-9.4V144.3z M204.7,144.3c0,3.2-1.6,4.7-4.2,4.7s-4.1-1.5-4.1-4.4v-18
H187v17.6c0,7.5,5.3,12,13.4,12c8.1,0,13.6-4.4,13.6-12.1v-17.4h-9.4V144.3z M163.2,155.3h22.3v-6.5h-13.3v-5h12.2v-6.5h-12.2
v-4.3H185v-6.5h-21.8V155.3z M233.3,187.1h9v-28.7h-9V187.1z M219.6,179.8v-21.4h-9v28.7h20.9v-7.4H219.6z M196.8,164.9h-7.1
l2.9,5.1h4.3c1.7,0,2.7-1,2.7-2.6C199.5,165.9,198.5,164.9,196.8,164.9L196.8,164.9z M198.5,158.4c6.1,0,10,3.2,10,8.9
c0,3.9-2.1,6.7-5.8,8.1l6.8,11.7h-10.2l-5.9-10.6h-2.9v10.6h-9v-28.7H198.5z M136,175.2v6h8.1c1.9,0,3-1.3,3-3.1
c0-1.8-1.1-2.9-3-2.9H136z M143.6,169.5c1.7,0,2.7-1.2,2.7-2.7s-1-2.5-2.7-2.5h-4.8l-2.8,5.1H143.6z M155.9,178.9
c0,5-3.6,8.2-9.4,8.2H128v-28.7h17.7c5.8,0,9.2,2.7,9.2,7.4c0,3.1-1.7,5.3-4.7,6.4C153.8,173.1,155.9,175.3,155.9,178.9
L155.9,178.9z M228.8,112.3h10.2v11.1h9V94.7h-9v10.6h-10.2V94.7h-9v28.7h9V112.3z M153.5,123.5h9V94.7h-9V123.5z M110.6,87.1
h7.1v3.8l-7.1,1.8V87.1z M99.8,87.1h7.1v3.8l-7.1,1.8V87.1z M104.4,94.7v18c0,2.9,1.4,4.4,3.9,4.4c2.6,0,4.1-1.5,4.1-4.7V94.7
h9v17.4c0,7.7-5.3,12.1-13.1,12.1c-7.8,0-12.9-4.4-12.9-12V94.7H104.4z"/></svg>
