<svg enable-background="new 0 0 792 398" viewBox="0 0 792 398" xmlns="http://www.w3.org/2000/svg"><path d="m610.8 4.5v136h42.7v-43.1l-1.7-31 48.5 74.1h41.7v-136h-42.7v43.3l1.7 31-48.5-74.3zm-74.1 28.5c14 0 21 5.3 21 16.1 0 10.4-7 15.7-20.8 15.7h-17.8v-31.8zm-60.8 107.5h43.3v-47.8h12.7l26.3 48h47.6l-33.1-55c4-1.7 7-3 9.1-4 3.2-1.7 6.1-4 8.5-6.4 7-7 10.4-16.1 10.4-27.2 0-7.9-1.7-15.1-4.9-21.7-4.2-8.1-10.4-14-18.5-17.6-7-2.8-18.1-4.4-33.4-4.4h-67.8zm-14.8-136h-44.6v136h44.6zm-147 83.3h42.1v52.7h44.6v-136h-44.6v45.9h-42.1v-45.9h-44.6v136h44.6zm-53.2-31.4c-3.6-35.5-27.4-55.5-68.4-55.5-19.5 0-35.5 6.4-48.2 19.3-13 13.2-19.7 30.6-19.7 52.1 0 22.1 6.4 39.7 19.3 52.5 12.9 12.9 30.4 19.3 52.9 19.3 18 0 32.9-4.9 44.4-14.9 11.7-10 18.5-23.8 20.6-41.4h-42.8c-2.1 15.3-9.6 23.1-22.9 23.1-10.4 0-17.6-3.8-21.9-11.3-3.2-5.9-4.9-14.4-4.9-25.7 0-26.4 8.3-39.7 25.1-39.7 14.7 0 22.9 7.4 24.2 22.3h42.3zm-140-12.5c-1.7-12.9-7.2-23-16.1-30.4-10.2-8.5-24.2-12.6-42.1-12.6-17.6 0-31.7 3.6-42.1 11-11.2 7.7-16.9 18.4-16.9 32.4 0 14.9 6.8 26.3 20.2 33.6 5.9 3.2 18.5 7.4 37.8 12.1 13.4 3.2 20.2 7.6 20.2 12.7 0 6.6-6.2 10-18.5 10-4.7 0-9.1-1.1-12.7-3.4-4-2.5-6.4-6.1-7.4-10.8h-42.6c.6 12.7 6.2 23.4 17 31.9 11.3 9.1 25.7 13.6 43.3 13.6 19.5 0 34.8-3.8 45.9-11.5 11.9-8.3 17.8-20 17.8-35.3 0-14.2-6.8-24.9-20.2-32.3-5.7-3-18.3-7-37.8-12.1-13.5-3.4-20.3-7.7-20.3-12.8s4.7-7.8 14.2-7.8c4.5 0 8.3.8 11.5 2.5 3.6 1.9 5.9 4.9 6.4 9.3z"/><path d="m636.3 262.2v51.1h34c-2 7.9-6.9 14.4-15.1 19.6-8.2 4.9-16.4 7.5-24.5 7.5-33.1 0-49.4-21.3-49.4-63.8 0-42.9 15.1-69.1 44.8-69.1 20.6 0 34 9.8 39.6 29.8h73.3c-4.6-28.2-17.3-50.1-38-65.5-20-14.7-44.5-21.9-73.6-21.9-37.6 0-67.8 11.8-90 35-22.3 23.2-33.4 54-33.4 92 0 39 11.4 69.4 34.7 91.3 20.6 20 47.1 29.8 79.5 29.8 31.1 0 54.7-9.5 71-28.8l2.9 23.2h49.9v-130.2zm-274 98.5h76.9l9.2 31.1h76.9l-84.5-235.7h-78.6l-84.5 235.7h75.6zm14.7-49.1 23.9-84.5 24.9 84.5zm-303.8.3-1.6-36.7-3.3-34.7h.7l42.9 151.2h53.7l42.9-151.2h.7l-3.9 42.6-1 36.7v72h69.4v-235.7h-93.3l-41.6 147-41.6-147h-93.4v235.7h69.4z"/></svg>